<svg xmlns="http://www.w3.org/2000/svg" width="400" height="225" viewBox="0 0 400 225"><rect width="100%" height="100%" fill="#a3a4a6"/><path fill="#ffffff" d="M132.68 130.065q1.01 0 1.79.79l4.88 5.29q-4.05 5.01-9.96 7.68t-14.19 2.67q-7.41 0-13.32-2.53t-10.1-7.04q-4.18-4.51-6.41-10.77-2.23-6.25-2.23-13.66 0-7.5 2.39-13.73t6.74-10.74q4.34-4.51 10.37-7.02 6.03-2.5 13.34-2.5 7.27 0 12.9 2.39 5.64 2.39 9.59 6.26l-4.14 5.75q-.36.55-.94.96-.57.42-1.59.42-.69 0-1.42-.4-.74-.39-1.61-.96-.88-.58-2.03-1.27t-2.66-1.26q-1.52-.58-3.52-.97t-4.63-.39q-4.46 0-8.16 1.59t-6.37 4.6-4.14 7.36-1.47 9.91q0 5.61 1.58 9.98 1.59 4.37 4.3 7.36 2.72 2.99 6.4 4.58t7.91 1.59q2.53 0 4.58-.28 2.04-.27 3.77-.87 1.72-.6 3.27-1.54 1.54-.95 3.05-2.33.46-.41.97-.66.51-.26 1.06-.26m42.69-31.51h11.36v47.2h-6.95q-2.25 0-2.85-2.07l-.78-3.77q-2.9 2.94-6.4 4.76-3.49 1.82-8.23 1.82-3.86 0-6.83-1.31-2.97-1.32-4.99-3.71-2.03-2.39-3.06-5.68-1.04-3.29-1.04-7.24v-30h11.37v30q0 4.32 2 6.69t6 2.37q2.94 0 5.52-1.31t4.88-3.61zm32.61 2.86.69 5.33q2.21-4.23 5.24-6.65 3.04-2.41 7.18-2.41 3.27 0 5.24 1.43l-.73 8.51q-.23.82-.67 1.17-.44.34-1.17.34-.69 0-2.05-.23t-2.64-.23q-1.89 0-3.36.56-1.47.55-2.65 1.58-1.17 1.04-2.07 2.51-.89 1.47-1.68 3.36v29.07h-11.36v-47.2h6.67q1.75 0 2.44.63.69.62.92 2.23m55.66 2.25-2.58 4.09q-.46.74-.96 1.04-.51.3-1.29.3-.83 0-1.77-.46t-2.19-1.04q-1.24-.57-2.82-1.03-1.59-.46-3.75-.46-3.36 0-5.27 1.42-1.91 1.43-1.91 3.73 0 1.52.99 2.55.99 1.04 2.62 1.82t3.7 1.4 4.21 1.36 4.21 1.68 3.71 2.39q1.63 1.45 2.62 3.47.99 2.03.99 4.88 0 3.4-1.22 6.28-1.22 2.87-3.61 4.97-2.4 2.09-5.91 3.26-3.52 1.18-8.12 1.18-2.44 0-4.76-.44-2.33-.44-4.47-1.22t-3.95-1.84q-1.82-1.06-3.2-2.3l2.62-4.32q.51-.79 1.2-1.2t1.75-.41q1.05 0 2 .59.94.6 2.18 1.29t2.92 1.29 4.26.6q2.02 0 3.47-.49 1.45-.48 2.39-1.26.95-.78 1.38-1.82.44-1.03.44-2.14 0-1.65-.99-2.71t-2.62-1.84-3.73-1.4q-2.09-.62-4.27-1.36-2.19-.74-4.28-1.72-2.1-.99-3.73-2.51t-2.62-3.73-.99-5.33q0-2.9 1.15-5.52 1.15-2.63 3.38-4.58 2.23-1.96 5.57-3.13 3.33-1.17 7.7-1.17 4.88 0 8.88 1.61t6.67 4.23m29.95-5.84q5.24 0 9.54 1.7t7.36 4.83 4.72 7.64q1.65 4.5 1.65 10.07 0 5.61-1.65 10.12-1.66 4.51-4.72 7.68-3.06 3.18-7.36 4.88t-9.54 1.7q-5.29 0-9.62-1.7-4.32-1.7-7.38-4.88-3.06-3.17-4.74-7.68t-1.68-10.12q0-5.57 1.68-10.07 1.68-4.51 4.74-7.64t7.38-4.83q4.33-1.7 9.62-1.7m0 39.88q5.88 0 8.71-3.96 2.83-3.95 2.83-11.59 0-7.63-2.83-11.64-2.83-4-8.71-4-5.98 0-8.86 4.03-2.87 4.02-2.87 11.61t2.87 11.57q2.88 3.98 8.86 3.98"/></svg>